<svg xmlns="http://www.w3.org/2000/svg" xmlns:xlink="http://www.w3.org/1999/xlink" width="540" zoomAndPan="magnify" viewBox="0 0 404.88 404.99999" height="540" preserveAspectRatio="xMidYMid meet" version="1.0"><defs><clipPath id="500f412e29"><path d="M 29 147 L 345 147 L 345 376.710938 L 29 376.710938 Z M 29 147 " clip-rule="nonzero"/></clipPath><clipPath id="c24106c9fd"><path d="M 104 28.066406 L 319 28.066406 L 319 165 L 104 165 Z M 104 28.066406 " clip-rule="nonzero"/></clipPath></defs><g clip-path="url(#500f412e29)"><path fill="currentColor" d="M 320.027344 195.941406 C 318.910156 188.480469 312.511719 183.101562 304.980469 183.101562 L 183.019531 183.101562 L 160.871094 156.886719 C 156.175781 151.371094 149.285156 147.898438 142.035156 147.898438 L 62.792969 147.898438 C 57.144531 147.898438 51.78125 150.542969 48.128906 154.867188 C 44.484375 159.203125 42.929688 165.140625 43.882812 170.710938 L 45.988281 183.101562 L 44.597656 183.101562 C 40.160156 183.101562 35.960938 184.90625 33.089844 188.265625 C 30.179688 191.640625 28.914062 196.03125 29.597656 200.410156 L 54.199219 360.039062 C 55.691406 369.640625 63.957031 376.710938 73.671875 376.710938 L 329.082031 376.710938 C 333.519531 376.710938 337.71875 374.761719 340.585938 371.433594 C 343.464844 368.074219 344.765625 363.714844 344.105469 359.335938 Z M 320.027344 195.941406 " fill-opacity="1" fill-rule="nonzero"/></g><path fill="#000000" d="M 259.304688 76.8125 L 163.90625 76.8125 C 157.328125 76.8125 151.996094 82.75 151.996094 89.339844 C 151.996094 95.925781 157.339844 101.863281 163.90625 101.863281 L 259.304688 101.863281 C 265.902344 101.863281 271.226562 95.925781 271.226562 89.339844 C 271.226562 82.75 265.882812 76.8125 259.304688 76.8125 Z M 259.304688 76.8125 " fill-opacity="1" fill-rule="nonzero"/><path fill="#000000" d="M 371.699219 164.59375 C 368.953125 161.398438 364.933594 159.394531 360.710938 159.394531 L 333.640625 159.394531 L 339.804688 216.476562 L 354.511719 316.199219 L 375.105469 176.246094 C 375.675781 172.078125 374.46875 167.796875 371.699219 164.59375 Z M 371.699219 164.59375 " fill-opacity="1" fill-rule="nonzero"/><g clip-path="url(#c24106c9fd)"><path fill="#000000" d="M 129.105469 51.089844 L 295.636719 51.089844 L 295.636719 164.144531 L 318.671875 164.144531 L 318.671875 42.707031 C 318.660156 34.6875 311.960938 28.066406 303.941406 28.066406 L 119.773438 28.066406 C 110.96875 28.066406 104.066406 35.3125 104.066406 44.121094 L 104.066406 131.644531 L 129.105469 131.644531 Z M 129.105469 51.089844 " fill-opacity="1" fill-rule="nonzero"/></g><path fill="#000000" d="M 259.304688 122.847656 L 163.90625 122.847656 C 158.179688 122.847656 153.40625 127.375 152.253906 132.921875 C 160.421875 135.003906 167.847656 139.453125 173.441406 146.007812 L 175.175781 147.886719 L 259.304688 147.886719 C 265.902344 147.886719 271.226562 141.949219 271.226562 135.363281 C 271.226562 128.773438 265.882812 122.847656 259.304688 122.847656 Z M 259.304688 122.847656 " fill-opacity="1" fill-rule="nonzero"/></svg>