<svg width="25" height="25" viewBox="0 0 25 25" fill="none" xmlns="http://www.w3.org/2000/svg">
<path d="M17.5 6.5V5.5C17.5 3.8 16.2 2.5 14.5 2.5H10.5C8.8 2.5 7.5 3.8 7.5 5.5V6.5H2.5V10.5C2.5 12.2 3.8 13.5 5.5 13.5H19.5C21.2 13.5 22.5 12.2 22.5 10.5V6.5H17.5ZM9.5 5.5C9.5 4.9 9.9 4.5 10.5 4.5H14.5C15.1 4.5 15.5 4.9 15.5 5.5V6.5H9.5V5.5ZM19.5 14.5C20.7 14.5 21.8 14 22.5 13.1V17.5C22.5 19.2 21.2 20.5 19.5 20.5H5.5C3.8 20.5 2.5 19.2 2.5 17.5V13.1C3.2 14 4.3 14.5 5.5 14.5H19.5Z" fill="#666666" fill-opacity="0.6"/>
</svg>
