<svg width="89" height="44" viewBox="0 0 862 176" fill="none" xmlns="http://www.w3.org/2000/svg">
<path d="M84.4706 67.8462H108V138.462H84.4706V67.8462ZM96.2352 31.3615C93.6888 31.4194 91.2164 32.2276 89.1276 33.685C87.0382 35.1422 85.4252 37.1838 84.4911 39.5539C83.5564 41.924 83.3418 44.5173 83.8735 47.0089C84.4059 49.5005 85.6611 51.7797 87.4817 53.561C89.3029 55.3422 91.6087 56.5463 94.1111 57.0224C96.6128 57.4986 99.1999 57.2256 101.547 56.2377C103.895 55.2497 105.899 53.5908 107.308 51.4687C108.718 49.3465 109.47 46.8556 109.471 44.3077C109.479 42.5803 109.14 40.8687 108.475 39.2748C107.809 37.6809 106.829 36.2372 105.595 35.0295C104.36 33.8218 102.895 32.8747 101.288 32.2446C99.6794 31.6145 97.9611 31.3142 96.2352 31.3615ZM31.5294 32.5385H8V138.462H72.7058V114.923H31.5294V32.5385ZM277.176 67.8462H249.176L226.059 96.6808H225.647V32.5385H202.118V138.462H225.647V104.743H226.059L249.588 138.462H278.588L249.176 100.094L277.176 67.8462ZM164.059 66.0808C159.662 66.0112 155.318 67.0535 151.431 69.1108C147.545 71.168 144.239 74.1745 141.823 77.85H141.529V67.8462H119.765V138.462H143.294V100.035C143.035 98.1666 143.177 96.2641 143.709 94.454C144.242 92.6445 145.153 90.9692 146.382 89.5386C147.612 88.1081 149.132 86.9559 150.84 86.1579C152.549 85.3605 154.408 84.9357 156.294 84.9115C162.765 84.9115 166.824 88.3835 166.824 99.7408V138.462H190.353V94.68C190.353 73.2012 176.882 66.0808 164.059 66.0808ZM440 20.7692V150.231C440 153.352 438.759 156.345 436.553 158.553C434.347 160.76 431.353 162 428.235 162H298.824C295.704 162 292.711 160.76 290.505 158.553C288.298 156.345 287.059 153.352 287.059 150.231V20.7692C287.059 17.6479 288.298 14.6543 290.505 12.4471C292.711 10.24 295.704 9 298.824 9H428.235C431.353 9 434.347 10.24 436.553 12.4471C438.759 14.6543 440 17.6479 440 20.7692ZM334.118 67.8462H310.588V138.462H334.118V67.8462ZM335.588 44.3077C335.646 41.6773 334.921 39.089 333.502 36.8733C332.083 34.6576 330.038 32.9148 327.625 31.8674C325.212 30.82 322.542 30.5154 319.956 30.9926C317.369 31.4698 314.983 32.7071 313.103 34.5465C311.223 36.3859 309.932 38.7441 309.398 41.3203C308.862 43.8964 309.107 46.5734 310.099 49.01C311.092 51.4466 312.788 53.5321 314.97 55.0004C317.152 56.4687 319.723 57.2532 322.353 57.2538C324.079 57.3012 325.797 57.0009 327.405 56.3708C329.013 55.7407 330.478 54.7936 331.713 53.5859C332.947 52.3782 333.927 50.9345 334.592 49.3406C335.258 47.7467 335.596 46.0351 335.588 44.3077ZM416.471 94.68C416.471 73.2012 403 65.8454 390.176 65.8454C385.754 65.8184 381.397 66.9103 377.509 69.0195C373.622 71.1286 370.331 74.1862 367.941 77.9088V67.8462H345.882V138.462H369.412V100.035C369.153 98.1666 369.295 96.2641 369.827 94.454C370.359 92.6445 371.271 90.9692 372.5 89.5386C373.73 88.1081 375.249 86.9559 376.958 86.1579C378.667 85.3605 380.526 84.9357 382.412 84.9115C388.882 84.9115 392.941 88.3835 392.941 99.7408V138.462H416.471V94.68Z" fill="black"/>
<path d="M452.08 138V47H485.4C492.027 47 498.14 47.9333 503.74 49.8C509.34 51.6667 513.82 54.7933 517.18 59.18C520.633 63.5667 522.36 69.5867 522.36 77.24C522.36 84.6133 520.633 90.68 517.18 95.44C513.82 100.107 509.34 103.56 503.74 105.8C498.233 108.04 492.307 109.16 485.96 109.16H476.16V138H452.08ZM476.16 90.12H484.84C489.6 90.12 493.1 89 495.34 86.76C497.673 84.4267 498.84 81.2533 498.84 77.24C498.84 73.1333 497.58 70.24 495.06 68.56C492.54 66.88 488.947 66.04 484.28 66.04H476.16V90.12ZM556.576 139.68C548.922 139.68 543.369 137.113 539.916 131.98C536.462 126.753 534.736 119.8 534.736 111.12V68H558.816V108.04C558.816 112.52 559.376 115.507 560.496 117C561.709 118.493 563.482 119.24 565.816 119.24C568.056 119.24 569.922 118.773 571.416 117.84C572.909 116.907 574.402 115.32 575.896 113.08V68H599.976V138H580.376L578.696 128.76H578.136C575.336 132.12 572.209 134.78 568.756 136.74C565.396 138.7 561.336 139.68 556.576 139.68ZM616.233 138V68H635.833L637.513 80.04H638.073C640.687 75.28 643.767 71.8267 647.313 69.68C650.953 67.44 654.5 66.32 657.953 66.32C660.1 66.32 661.827 66.46 663.133 66.74C664.533 66.9267 665.7 67.2533 666.633 67.72L662.713 88.44C661.5 88.16 660.287 87.9267 659.073 87.74C657.86 87.46 656.46 87.32 654.873 87.32C652.353 87.32 649.693 88.2067 646.893 89.98C644.187 91.66 641.993 94.6933 640.313 99.08V138H616.233ZM674.749 138V68H694.349L696.029 80.04H696.589C699.202 75.28 702.282 71.8267 705.829 69.68C709.469 67.44 713.016 66.32 716.469 66.32C718.616 66.32 720.342 66.46 721.649 66.74C723.049 66.9267 724.216 67.2533 725.149 67.72L721.229 88.44C720.016 88.16 718.802 87.9267 717.589 87.74C716.376 87.46 714.976 87.32 713.389 87.32C710.869 87.32 708.209 88.2067 705.409 89.98C702.702 91.66 700.509 94.6933 698.829 99.08V138H674.749ZM743.625 164.32C741.291 164.32 739.331 164.18 737.745 163.9C736.158 163.62 734.571 163.293 732.985 162.92L737.185 144.72C737.838 144.813 738.585 144.953 739.425 145.14C740.265 145.42 741.011 145.56 741.665 145.56C744.931 145.56 747.405 144.907 749.085 143.6C750.765 142.293 751.931 140.613 752.585 138.56L753.425 135.48L726.825 68H750.905L759.305 94.88C760.331 98.0533 761.218 101.273 761.965 104.54C762.711 107.807 763.505 111.213 764.345 114.76H764.905C765.651 111.4 766.351 108.087 767.005 104.82C767.751 101.553 768.545 98.24 769.385 94.88L776.385 68H799.345L775.825 136.88C773.398 143.133 770.785 148.267 767.985 152.28C765.278 156.387 761.965 159.42 758.045 161.38C754.218 163.34 749.411 164.32 743.625 164.32Z" fill="black"/>
</svg>
