<svg width="25" height="25" viewBox="0 0 25 25" fill="none" xmlns="http://www.w3.org/2000/svg">
<path d="M16.5 3.5H8.5C6.64348 3.5 4.86301 4.27847 3.55025 5.66416C2.2375 7.04984 1.5 8.92923 1.5 10.8889C1.5 12.8485 2.2375 14.7279 3.55025 16.1136C4.86301 17.4993 6.64348 18.2778 8.5 18.2778H12.5V22.5L20.66 16.8106C21.5512 16.139 22.2751 15.2495 22.7697 14.2183C23.2643 13.187 23.5148 12.0446 23.5 10.8889C23.5 8.92923 22.7625 7.04984 21.4497 5.66416C20.137 4.27847 18.3565 3.5 16.5 3.5ZM8.5 12.2083C8.25277 12.2083 8.0111 12.131 7.80554 11.986C7.59998 11.841 7.43976 11.6349 7.34515 11.3938C7.25054 11.1527 7.22579 10.8874 7.27402 10.6315C7.32225 10.3755 7.4413 10.1404 7.61612 9.9559C7.79093 9.77137 8.01366 9.64571 8.25614 9.5948C8.49861 9.54389 8.74995 9.57002 8.97835 9.66988C9.20676 9.76975 9.40199 9.93886 9.53934 10.1559C9.67669 10.3728 9.75 10.6279 9.75 10.8889C9.75 11.2388 9.6183 11.5744 9.38388 11.8219C9.14946 12.0693 8.83152 12.2083 8.5 12.2083ZM12.5 12.2083C12.2528 12.2083 12.0111 12.131 11.8055 11.986C11.6 11.841 11.4398 11.6349 11.3452 11.3938C11.2505 11.1527 11.2258 10.8874 11.274 10.6315C11.3222 10.3755 11.4413 10.1404 11.6161 9.9559C11.7909 9.77137 12.0137 9.64571 12.2561 9.5948C12.4986 9.54389 12.7499 9.57002 12.9784 9.66988C13.2068 9.76975 13.402 9.93886 13.5393 10.1559C13.6767 10.3728 13.75 10.6279 13.75 10.8889C13.75 11.2388 13.6183 11.5744 13.3839 11.8219C13.1495 12.0693 12.8315 12.2083 12.5 12.2083ZM16.5 12.2083C16.2528 12.2083 16.0111 12.131 15.8055 11.986C15.6 11.841 15.4398 11.6349 15.3452 11.3938C15.2505 11.1527 15.2258 10.8874 15.274 10.6315C15.3222 10.3755 15.4413 10.1404 15.6161 9.9559C15.7909 9.77137 16.0137 9.64571 16.2561 9.5948C16.4986 9.54389 16.7499 9.57002 16.9784 9.66988C17.2068 9.76975 17.402 9.93886 17.5393 10.1559C17.6767 10.3728 17.75 10.6279 17.75 10.8889C17.75 11.2388 17.6183 11.5744 17.3839 11.8219C17.1495 12.0693 16.8315 12.2083 16.5 12.2083Z" fill="#666666"/>
</svg>
