<svg width="18" height="18" viewBox="0 0 18 18" fill="none" xmlns="http://www.w3.org/2000/svg">
<path d="M17.3361 0.220983L0.873099 5.70998C0.805692 5.7324 0.746702 5.7748 0.703966 5.83154C0.661231 5.88828 0.636773 5.95669 0.633843 6.02766C0.630913 6.09864 0.649649 6.16883 0.687562 6.2289C0.725475 6.28897 0.780769 6.33609 0.846099 6.36398L6.8961 8.95698C6.9278 8.97071 6.96252 8.97599 6.99687 8.97231C7.03121 8.96863 7.06402 8.95611 7.0921 8.93598L13.0231 4.69798C13.2071 4.56798 13.4331 4.79398 13.3031 4.97798L9.0651 10.909C9.04531 10.937 9.03307 10.9697 9.02957 11.0039C9.02607 11.038 9.03142 11.0725 9.0451 11.104L11.6371 17.154C11.6649 17.2193 11.7119 17.2747 11.7719 17.3127C11.832 17.3507 11.9021 17.3695 11.9731 17.3667C12.044 17.3639 12.1125 17.3395 12.1693 17.2969C12.2261 17.2543 12.2686 17.1953 12.2911 17.128L17.7801 0.663983C17.8008 0.602274 17.8038 0.536028 17.7889 0.472684C17.774 0.409341 17.7417 0.351408 17.6957 0.305394C17.6497 0.259379 17.5917 0.227104 17.5284 0.212193C17.4651 0.197282 17.3978 0.200326 17.3361 0.220983Z" fill="white"/>
</svg>
