<svg width="25" height="25" viewBox="0 0 25 25" fill="none" xmlns="http://www.w3.org/2000/svg">
<path d="M12.5 16.5V22.5H3.5V16.5C3.5 14.8 4.8 13.5 6.5 13.5H9.5C11.2 13.5 12.5 14.8 12.5 16.5ZM18 13.5C19.9 13.5 21.5 11.9 21.5 10C21.5 8.1 19.9 6.5 18 6.5C16.1 6.5 14.5 8.1 14.5 10C14.5 11.9 16.1 13.5 18 13.5ZM19 15.5H17C15.6 15.5 14.5 16.6 14.5 18V22.5H21.5V18C21.5 16.6 20.4 15.5 19 15.5ZM8 2.5C5.5 2.5 3.5 4.5 3.5 7C3.5 9.5 5.5 11.5 8 11.5C10.5 11.5 12.5 9.5 12.5 7C12.5 4.5 10.5 2.5 8 2.5Z" fill="#666666"/>
</svg>
