<svg width="240" height="240" viewBox="0 0 240 240" fill="none" xmlns="http://www.w3.org/2000/svg">
<path d="M135 60C135 68.9002 132.361 77.6005 127.416 85.0007C122.471 92.4009 115.443 98.1686 107.221 101.575C98.9981 104.981 89.9501 105.872 81.221 104.135C72.4918 102.399 64.4736 98.1132 58.1802 91.8198C51.8869 85.5264 47.601 77.5082 45.8647 68.7791C44.1283 60.0499 45.0195 51.0019 48.4254 42.7792C51.8314 34.5566 57.5991 27.5285 64.9994 22.5839C72.3996 17.6392 81.0999 15 90 15C101.935 15 113.381 19.7411 121.82 28.1802C130.259 36.6193 135 48.0653 135 60ZM101.25 120H78.75C69.799 120 61.2145 123.556 54.8852 129.885C48.5558 136.214 45 144.799 45 153.75V225H135V153.75C135 144.799 131.444 136.214 125.115 129.885C118.786 123.556 110.201 120 101.25 120Z" fill="#666666"/>
<g clip-path="url(#clip0_197_56)">
<path d="M155.298 119.682L170.59 104.463C173.596 101.468 175.859 97.8165 177.2 93.7989L179.116 88.0775C179.836 85.9491 181.207 84.0986 183.038 82.7861C184.869 81.4736 187.068 80.7651 189.324 80.7603C190.737 80.7551 192.136 81.0269 193.443 81.5601C194.75 82.0933 195.939 82.8774 196.941 83.8677C197.943 84.858 198.74 86.035 199.285 87.3317C199.83 88.6283 200.114 90.0191 200.119 91.4247V95.7839C200.11 99.5527 199.503 103.296 198.32 106.877L196.638 111.897H215.294C217.493 111.897 219.602 112.767 221.157 114.314C222.712 115.862 223.585 117.96 223.585 120.149C223.58 121.494 223.25 122.818 222.624 124.01C221.998 125.202 221.094 126.227 219.987 126.999C221.095 127.752 222.001 128.762 222.628 129.942C223.255 131.122 223.584 132.436 223.585 133.771C223.617 135.416 223.158 137.032 222.267 138.418C221.376 139.803 220.093 140.895 218.579 141.556C219.282 142.734 219.66 144.077 219.674 145.448C219.678 147.558 218.869 149.588 217.414 151.123C215.959 152.658 213.969 153.58 211.852 153.699V154.244C211.852 156.432 210.979 158.531 209.424 160.079C207.869 161.626 205.76 162.495 203.561 162.495H174.267C169.409 162.491 164.618 161.372 160.265 159.226L159.052 158.603H149.275V119.682H155.298ZM219.674 118.429L201.214 156.974L163.863 152.259C172.283 148.522 172.495 151.112 176.144 151.123L201.214 154.711C202.087 154.746 202.946 154.488 203.655 153.981C204.364 153.473 204.881 152.743 205.125 151.909L206.103 148.522L209.427 146.927C210.193 146.616 208.131 140.591 208.567 139.892C209.002 139.192 211.248 138.96 211.187 138.14V139.142L214.762 131.569C215.408 130.941 216.432 133.777 216.531 132.883C216.631 131.989 204.053 160.833 203.561 160.079L179.116 136.262L214.981 122.834C215.144 122.637 215.266 122.408 215.339 122.163C215.412 121.918 215.434 121.66 215.405 121.406C215.376 121.152 215.296 120.906 215.169 120.683C215.042 120.461 214.872 120.266 214.668 120.11C214.297 119.802 213.82 119.649 213.338 119.682L159.052 149.528L190.889 104.424C191.823 101.639 181.577 96.7358 181.576 93.7989L189.324 87.3317C189.304 86.5637 191.961 89.9646 191.416 89.4214C190.87 88.8781 190.135 88.5643 189.363 88.5446C188.75 88.545 188.152 88.7367 187.654 89.0928C187.156 89.4489 186.783 89.9513 186.587 90.5295L184.475 96.3288C182.787 101.447 200.733 94.4375 196.941 98.2806L174.384 134.635L157.097 127.466L219.674 118.429Z" fill="black" fill-opacity="0.6"/>
</g>
<defs>
<clipPath id="clip0_197_56">
<rect width="100" height="98.9903" fill="white" transform="matrix(-1 0 0 1 236 72)"/>
</clipPath>
</defs>
</svg>
